<?xml version="1.0" encoding="UTF-8" standalone="no"?>
<!-- Created with Inkscape (http://www.inkscape.org/) -->

<svg
   xmlns:dc="http://purl.org/dc/elements/1.1/"
   xmlns:cc="http://creativecommons.org/ns#"
   xmlns:rdf="http://www.w3.org/1999/02/22-rdf-syntax-ns#"
   xmlns:svg="http://www.w3.org/2000/svg"
   xmlns="http://www.w3.org/2000/svg"
   xmlns:sodipodi="http://sodipodi.sourceforge.net/DTD/sodipodi-0.dtd"
   xmlns:inkscape="http://www.inkscape.org/namespaces/inkscape"
   id="svg4494"
   version="1.1"
   inkscape:version="0.91 r13725"
   width="223.22771"
   height="311.81165">
  <metadata
     id="metadata4500">
    <rdf:RDF>
      <cc:Work
         rdf:about="">
        <dc:format>image/svg+xml</dc:format>
        <dc:type
           rdf:resource="http://purl.org/dc/dcmitype/StillImage" />
      </cc:Work>
    </rdf:RDF>
  </metadata>
  <defs
     id="defs4498" />
  <sodipodi:namedview
     pagecolor="#ffffff"
     bordercolor="#666666"
     borderopacity="1"
     objecttolerance="10"
     gridtolerance="10"
     guidetolerance="10"
     inkscape:pageopacity="0"
     inkscape:pageshadow="2"
     inkscape:window-width="640"
     inkscape:window-height="480"
     id="namedview4496" />
  <inkscape:clipboard
     style="color:#000000;clip-rule:nonzero;display:inline;overflow:visible;visibility:visible;opacity:1;isolation:auto;mix-blend-mode:normal;color-interpolation:sRGB;color-interpolation-filters:linearRGB;solid-color:#000000;solid-opacity:1;fill:#d40000;fill-opacity:1;fill-rule:nonzero;stroke-width:0.99616894;stroke-linecap:butt;stroke-linejoin:miter;stroke-miterlimit:4;stroke-dasharray:none;stroke-dashoffset:0;stroke-opacity:1;filter-blend-mode:normal;filter-gaussianBlur-deviation:0;color-rendering:auto;image-rendering:auto;shape-rendering:auto;text-rendering:auto;enable-background:accumulate"
     min="2311.6145,779.53657"
     max="2534.8422,1091.3482" />
  <g
     transform="matrix(0.99553491,0,0,0.99680337,-2301.7868,30.84629)"
     id="g6785">
    <rect
       y="-30.444927"
       x="2312.6108"
       height="311.81104"
       width="223.22835"
       id="rect6894-2"
       style="display:inline;fill:#ffffff;fill-opacity:1;stroke:#000000;stroke-width:1.0005666;stroke-miterlimit:4;stroke-dasharray:none;stroke-opacity:1"
       rx="10.677597"
       ry="10.66401" />
    <path
       inkscape:connector-curvature="0"
       id="path6926-2"
       d="m 2329.8283,39.5284 c -2.1609,-3.5686 -4.4344,-7.0371 -7.2754,-10 2.841,-2.9628 5.1145,-6.4313 7.2754,-10 2.1608,3.5687 4.4343,7.0372 7.2754,10 -2.8411,2.9629 -5.1146,6.4314 -7.2754,10 z"
       style="display:inline;opacity:1;fill:#d40000" />
    <path
       inkscape:connector-curvature="0"
       id="path6928-9"
       d="m 2475.9915,50.25 c -5.1862,-8.5648 -10.6425,-16.8891 -17.4609,-24 6.8184,-7.1108 12.2748,-15.4351 17.4609,-24 5.1862,8.5649 10.6425,16.8892 17.4609,24 -6.8184,7.1109 -12.2747,15.4352 -17.4609,24 z"
       style="display:inline;opacity:1;fill:#d40000" />
    <path
       style="display:inline;opacity:1;fill:#d40000"
       d="m 2518.6228,231.393 c -2.1609,-3.5686 -4.4344,-7.0371 -7.2754,-10 2.841,-2.9628 5.1145,-6.4313 7.2754,-10 2.1608,3.5687 4.4342,7.0372 7.2754,10 -2.8412,2.9629 -5.1146,6.4314 -7.2754,10 z"
       id="path6930-6"
       inkscape:connector-curvature="0" />
    <path
       inkscape:connector-curvature="0"
       id="path6932-2"
       d="m 2372.4587,50.25 c -5.1862,-8.5648 -10.6425,-16.8891 -17.4609,-24 6.8184,-7.1108 12.2748,-15.4351 17.4609,-24 5.1862,8.5649 10.6425,16.8892 17.4609,24 -6.8184,7.1109 -12.2747,15.4352 -17.4609,24 z"
       style="display:inline;opacity:1;fill:#d40000" />
    <path
       style="display:inline;opacity:1;fill:#d40000"
       d="m 2424.2251,99.8391 c -5.1862,-8.5648 -10.6425,-16.8891 -17.4609,-24 6.8184,-7.1108 12.2747,-15.4351 17.4609,-24 5.1862,8.5649 10.6425,16.8892 17.4609,24 -6.8184,7.1109 -12.2747,15.4352 -17.4609,24 z"
       id="path6938-4"
       inkscape:connector-curvature="0" />
    <path
       inkscape:connector-curvature="0"
       id="path6942-4"
       d="m 2372.4587,149.4283 c -5.1862,-8.5648 -10.6425,-16.8891 -17.4609,-24 6.8184,-7.1108 12.2748,-15.4351 17.4609,-24 5.1862,8.5649 10.6425,16.8892 17.4609,24 -6.8184,7.1109 -12.2747,15.4352 -17.4609,24 z"
       style="display:inline;opacity:1;fill:#d40000" />
    <path
       inkscape:connector-curvature="0"
       id="path6944-9"
       d="m 2475.9915,149.4438 c -5.1862,-8.5648 -10.6425,-16.8891 -17.4609,-24 6.8184,-7.1108 12.2748,-15.4351 17.4609,-24 5.1862,8.5649 10.6425,16.8892 17.4609,24 -6.8184,7.1109 -12.2747,15.4352 -17.4609,24 z"
       style="display:inline;opacity:1;fill:#d40000" />
    <path
       style="display:inline;opacity:1;fill:#d40000"
       d="m 2372.4587,248.6763 c -5.1862,-8.5648 -10.6425,-16.8891 -17.4609,-24 6.8184,-7.1108 12.2748,-15.4351 17.4609,-24 5.1862,8.5649 10.6425,16.8892 17.4609,24 -6.8184,7.1109 -12.2747,15.4352 -17.4609,24 z"
       id="path6948-4"
       inkscape:connector-curvature="0" />
    <path
       style="display:inline;opacity:1;fill:#d40000"
       d="m 2475.9915,248.6833 c -5.1862,-8.5648 -10.6425,-16.8891 -17.4609,-24 6.8184,-7.1108 12.2748,-15.4351 17.4609,-24 5.1862,8.5649 10.6425,16.8892 17.4609,24 -6.8184,7.1109 -12.2747,15.4352 -17.4609,24 z"
       id="path6950-4"
       inkscape:connector-curvature="0" />
    <path
       inkscape:connector-curvature="0"
       id="path6956-4"
       d="m 2424.2251,199.0523 c -5.1862,-8.5648 -10.6425,-16.8891 -17.4609,-24 6.8184,-7.1108 12.2748,-15.4351 17.4609,-24 5.1862,8.5649 10.6425,16.8892 17.4609,24 -6.8184,7.1109 -12.2747,15.4352 -17.4609,24 z"
       style="display:inline;opacity:1;fill:#d40000" />
    <path
       d="m 2319.1071,6.7267 c 0.1568,-4.4301 1.7588,-6.0919 4.9126,-8.4097 -2.5161,-1.8149 -3.5768,-4.4903 -3.3608,-6.7675 0.5181,-5.5143 4.7763,-8.2708 9.4228,-8.153 4.6503,0.1231 8.6526,3.8094 8.965,7.8165 0.2713,3.4833 -0.7637,5.1647 -3.2348,6.9966 2.9327,2.4763 4.8059,4.1027 4.7365,8.466 -0.069,4.3633 -3.7812,9.5554 -10.2508,9.7139 -6.4695,0.1584 -11.3513,-5.2328 -11.1905,-9.6628 l 0,0 z m 18.06,0.016 c 0.2764,-4.0111 -3.2695,-6.7165 -7.2719,-6.7558 -3.8969,-0.042 -7.3824,3.2843 -7.3824,6.8854 0,3.867 4.5346,5.9687 7.4634,5.9779 3.5601,0.016 6.9504,-2.6544 7.1909,-6.1075 l 0,0 z m -1.2806,-14.3483 c 0.076,-3.3745 -3.0381,-5.7958 -6.2523,-5.6989 -2.858,0.088 -5.8807,2.2667 -5.8858,5.09 0,3.5344 3.4405,5.2996 6.3783,5.3677 2.6665,0.06 5.6994,-2.2065 5.7598,-4.7588 l 0,0 z m 0,0"
       id="path27-00-7-8-6"
       inkscape:connector-curvature="0"
       style="opacity:1;fill:#d40000;fill-opacity:1" />
    <path
       d="m 2507.9016,244.1948 c 0.1568,4.4301 1.7588,6.0918 4.9126,8.4097 -2.5161,1.8149 -3.5768,4.4902 -3.3608,6.7675 0.5181,5.5143 4.7763,8.2708 9.4228,8.1529 4.6503,-0.1231 8.6526,-3.8093 8.965,-7.8164 0.2713,-3.4833 -0.7637,-5.1647 -3.2348,-6.9967 2.9327,-2.4762 4.8059,-4.1026 4.7365,-8.4659 -0.069,-4.3633 -3.7812,-9.5555 -10.2508,-9.7139 -6.4695,-0.1585 -11.3513,5.2328 -11.1905,9.6628 l 0,0 z m 18.06,-0.016 c 0.2764,4.011 -3.2695,6.7165 -7.2719,6.7558 -3.8969,0.042 -7.3824,-3.2843 -7.3824,-6.8854 0,-3.867 4.5346,-5.9687 7.4634,-5.9779 3.5601,-0.016 6.9504,2.6544 7.1909,6.1075 l 0,0 z m -1.2806,14.3483 c 0.076,3.3745 -3.0381,5.7958 -6.2523,5.6989 -2.858,-0.088 -5.8807,-2.2667 -5.8858,-5.09 0,-3.5344 3.4405,-5.2996 6.3783,-5.3677 2.6665,-0.06 5.6994,2.2065 5.7598,4.7588 l 0,0 z m 0,0"
       id="path27-0-1-9-8"
       inkscape:connector-curvature="0"
       style="opacity:1;fill:#d40000;fill-opacity:1" />
  </g>
</svg>
