<?xml version="1.0" encoding="UTF-8" standalone="no"?>
<!-- Created with Inkscape (http://www.inkscape.org/) -->

<svg
   xmlns:dc="http://purl.org/dc/elements/1.1/"
   xmlns:cc="http://creativecommons.org/ns#"
   xmlns:rdf="http://www.w3.org/1999/02/22-rdf-syntax-ns#"
   xmlns:svg="http://www.w3.org/2000/svg"
   xmlns="http://www.w3.org/2000/svg"
   xmlns:sodipodi="http://sodipodi.sourceforge.net/DTD/sodipodi-0.dtd"
   xmlns:inkscape="http://www.inkscape.org/namespaces/inkscape"
   id="svg4721"
   version="1.1"
   inkscape:version="0.91 r13725"
   width="223.22835"
   height="311.81104">
  <metadata
     id="metadata4727">
    <rdf:RDF>
      <cc:Work
         rdf:about="">
        <dc:format>image/svg+xml</dc:format>
        <dc:type
           rdf:resource="http://purl.org/dc/dcmitype/StillImage" />
      </cc:Work>
    </rdf:RDF>
  </metadata>
  <defs
     id="defs4725" />
  <sodipodi:namedview
     pagecolor="#ffffff"
     bordercolor="#666666"
     borderopacity="1"
     objecttolerance="10"
     gridtolerance="10"
     guidetolerance="10"
     inkscape:pageopacity="0"
     inkscape:pageshadow="2"
     inkscape:window-width="640"
     inkscape:window-height="480"
     id="namedview4723" />
  <inkscape:clipboard
     style="color:#000000;clip-rule:nonzero;display:inline;overflow:visible;visibility:visible;opacity:1;isolation:auto;mix-blend-mode:normal;color-interpolation:sRGB;color-interpolation-filters:linearRGB;solid-color:#000000;solid-opacity:1;fill:#d40000;fill-opacity:1;fill-rule:nonzero;stroke-width:0.99616934;stroke-linecap:butt;stroke-linejoin:miter;stroke-miterlimit:4;stroke-dasharray:none;stroke-dashoffset:0;stroke-opacity:1;filter-blend-mode:normal;filter-gaussianBlur-deviation:0;color-rendering:auto;image-rendering:auto;shape-rendering:auto;text-rendering:auto;enable-background:accumulate"
     min="1521.9291,1483.1602"
     max="1745.1575,1794.9712" />
  <g
     transform="matrix(0.99553774,0,0,0.99680134,-1575.2097,1061.0953)"
     id="g11305-8-4"
     style="display:inline">
    <g
       style="display:inline;opacity:1"
       inkscape:label="5D"
       id="g9936-1-0"
       transform="translate(1322.3374,-1434.2756)">
      <rect
         ry="10.664032"
         rx="10.677567"
         style="display:inline;fill:#ffffff;fill-opacity:1;stroke:#000000;stroke-width:1.0005666;stroke-miterlimit:4;stroke-dasharray:none;stroke-opacity:1"
         id="rect9938-9-5"
         width="223.22835"
         height="311.81104"
         x="260.43304"
         y="370.27557" />
    </g>
    <g
       transform="translate(1582.7704,-1064)"
       style="display:inline;opacity:1"
       id="g9956-4-1" />
    <g
       style="display:inline;opacity:1"
       id="g9962-7-4"
       transform="translate(1609.362,-1083.9055)" />
    <path
       sodipodi:nodetypes="cccscsccc"
       transform="translate(1695.3846,-853.90551)"
       inkscape:connector-curvature="0"
       style="display:inline;opacity:1;fill:#d40000"
       d="m -95.396892,-140.12123 c 0,0 -2.2247,-3.18978 -5.225698,-6.9401 -2.0077,-2.50969 -3.6127,-5.22722 -3.762,-7.56795 -0.1711,-2.67388 1.449,-5.35641 4.3821,-5.48643 2.931398,-0.12993 4.121198,2.06168 4.605598,3.86859 0.4844,-1.80691 1.6743,-3.99852 4.6056,-3.86859 2.9331,0.13002 4.5533,2.81255 4.3821,5.48643 -0.1492,2.34073 -1.7543,5.05826 -3.7619,7.56795 -3.0011,3.75032 -5.2258,6.9401 -5.2258,6.9401 z"
       id="path9970-5-6" />
    <path
       sodipodi:nodetypes="cccscsccc"
       transform="translate(1695.3846,-853.90551)"
       inkscape:connector-curvature="0"
       style="display:inline;opacity:1;fill:#d40000"
       d="m 93.397604,31.743411 c 0,0 -2.2247,3.18978 -5.2257,6.9401 -2.0077,2.50969 -3.6127,5.22722 -3.762,7.56795 -0.1711,2.67388 1.449,5.35641 4.3821,5.48643 2.9314,0.12993 4.1212,-2.06168 4.6056,-3.86859 0.4844,1.80691 1.6743,3.99852 4.6056,3.86859 2.933096,-0.13002 4.553296,-2.81255 4.382096,-5.48643 -0.1492,-2.34073 -1.7543,-5.05826 -3.761896,-7.56795 -3.0011,-3.75032 -5.2258,-6.9401 -5.2258,-6.9401 z"
       id="path9972-9-9" />
    <path
       sodipodi:nodetypes="cccscsccc"
       transform="translate(1695.3846,-853.90551)"
       id="path9978-0-4"
       d="m -52.766444,-129.39963 c 0,0 -4.6663,-7.65547 -10.9609,-16.65626 -4.211,-6.02326 -7.5776,-12.54533 -7.8906,-18.16309 -0.359,-6.41731 3.0392,-12.85538 9.1914,-13.16741 6.1485,-0.31185 8.6442,4.94803 9.6601,9.28461 1.016,-4.33658 3.5117,-9.59646 9.6602,-9.28461 6.1522,0.31203 9.5504,6.7501 9.1914,13.16741 -0.313,5.61776 -3.6796,12.13983 -7.8906,18.16309 -6.2946,9.00079 -10.961,16.65626 -10.961,16.65626 z"
       style="display:inline;opacity:1;fill:#d40000"
       inkscape:connector-curvature="0" />
    <path
       sodipodi:nodetypes="cccscsccc"
       transform="translate(1695.3846,-853.90551)"
       id="path9984-9-5"
       d="m 50.766354,-129.39963 c 0,0 -4.6663,-7.65547 -10.9609,-16.65626 -4.211,-6.02326 -7.5776,-12.54533 -7.8906,-18.16309 -0.359,-6.41731 3.0392,-12.85538 9.1914,-13.16741 6.1485,-0.31185 8.6442,4.94803 9.6601,9.28461 1.016,-4.33658 3.5117,-9.59646 9.6602,-9.28461 6.1522,0.31203 9.5504,6.7501 9.1914,13.16741 -0.313,5.61776 -3.6796,12.13983 -7.8906,18.16309 -6.2946,9.00079 -10.961,16.65626 -10.961,16.65626 z"
       style="display:inline;opacity:1;fill:#d40000"
       inkscape:connector-curvature="0" />
    <path
       sodipodi:nodetypes="cccscsccc"
       transform="translate(1695.3846,-853.90551)"
       inkscape:connector-curvature="0"
       style="display:inline;opacity:1;fill:#d40000"
       d="m -1.000056,-30.188979 c 0,0 -4.6663,-7.65547 -10.9609,-16.65626 -4.210998,-6.02326 -7.577598,-12.54533 -7.890598,-18.16309 -0.359,-6.41731 3.0392,-12.85538 9.191398,-13.16741 6.1485,-0.31185 8.6442,4.94803 9.6601,9.28461 1.01600005,-4.33658 3.5117,-9.59646 9.6602,-9.28461 6.1522,0.31203 9.5504,6.7501 9.1914,13.16741 -0.313,5.61776 -3.6796,12.13983 -7.8906,18.16309 -6.2946,9.00079 -10.961,16.65626 -10.961,16.65626 z"
       id="path9986-7-3" />
    <path
       sodipodi:nodetypes="cccscsccc"
       transform="translate(1695.3846,-853.90551)"
       inkscape:connector-curvature="0"
       style="display:inline;opacity:1;fill:#d40000"
       d="m 50.766354,21.021681 c 0,0 -4.6663,7.65547 -10.9609,16.65626 -4.211,6.02326 -7.5776,12.54533 -7.8906,18.16309 -0.359,6.41731 3.0392,12.85538 9.1914,13.16741 6.1485,0.31185 8.6442,-4.94803 9.6601,-9.28461 1.016,4.33658 3.5117,9.59646 9.6602,9.28461 6.1522,-0.31203 9.5504,-6.7501 9.1914,-13.16741 -0.313,-5.61776 -3.6796,-12.13983 -7.8906,-18.16309 -6.2946,-9.00079 -10.961,-16.65626 -10.961,-16.65626 z"
       id="path9998-0-9" />
    <path
       sodipodi:nodetypes="cccscsccc"
       transform="translate(1695.3846,-853.90551)"
       id="path10000-8-2"
       d="m -52.766444,21.021681 c 0,0 -4.6663,7.65547 -10.9609,16.65626 -4.211,6.02326 -7.5776,12.54533 -7.8906,18.16309 -0.359,6.41731 3.0392,12.85538 9.1914,13.16741 6.1485,0.31185 8.6442,-4.94803 9.6601,-9.28461 1.016,4.33658 3.5117,9.59646 9.6602,9.28461 6.1522,-0.31203 9.5504,-6.7501 9.1914,-13.16741 -0.313,-5.61776 -3.6796,-12.13983 -7.8906,-18.16309 -6.2946,-9.00079 -10.961,-16.65626 -10.961,-16.65626 z"
       style="display:inline;opacity:1;fill:#d40000"
       inkscape:connector-curvature="0" />
    <path
       d="m 1589.5848,-1025.7056 3.2348,-0.031 c 0.6171,1.9919 1.9825,4.0164 3.8365,4.5782 5.2378,1.2533 8.6076,-1.7286 9.7172,-5.1661 1.3461,-4.1697 -0.03,-10.0247 -3.636,-12.1029 -2.9879,-1.7234 -7.4274,-0.2698 -9.4664,3.4166 l -2.2654,-1.4117 1.2162,-13.7398 14.7995,0 0,3.2477 -11.9928,0 -0.1903,5.724 c 2.5817,-1.8464 6.5493,-1.8268 9.1296,-0.5316 4.8869,2.3742 7.1574,7.7721 6.2086,14.1339 -1.3165,6.3278 -4.2196,9.9133 -10.7676,10.4254 -7.2834,0.067 -9.8548,-5.0339 -9.8239,-8.5422 l 0,0 z m 0,0"
       id="path21-9-5-1-8"
       inkscape:connector-curvature="0"
       style="opacity:1;fill:#d40000;fill-opacity:1;stroke-width:1;stroke-miterlimit:4;stroke-dasharray:none" />
    <path
       d="m 1799.1822,-790.48326 -3.2348,0.031 c -0.6171,-1.9919 -1.9825,-4.0164 -3.8365,-4.5782 -5.2378,-1.2533 -8.6076,1.7286 -9.7172,5.1661 -1.3461,4.1697 0.03,10.0246 3.636,12.1029 2.9879,1.7234 7.4274,0.2698 9.4664,-3.4166 l 2.2654,1.4117 -1.2162,13.7398 -14.7995,0 0,-3.2477 11.9928,0 0.1903,-5.7241 c -2.5817,1.8465 -6.5493,1.8269 -9.1296,0.5317 -4.8869,-2.3742 -7.1574,-7.7722 -6.2086,-14.1339 1.3165,-6.3278 4.2196,-9.9133 10.7676,-10.4254 7.2834,-0.067 9.8548,5.0339 9.8239,8.5422 l 0,0 z m 0,0"
       id="path21-3-0-6-3-8"
       inkscape:connector-curvature="0"
       style="opacity:1;fill:#d40000;fill-opacity:1" />
  </g>
</svg>
