<?xml version="1.0" encoding="UTF-8" standalone="no"?>
<!-- Created with Inkscape (http://www.inkscape.org/) -->

<svg
   xmlns:dc="http://purl.org/dc/elements/1.1/"
   xmlns:cc="http://creativecommons.org/ns#"
   xmlns:rdf="http://www.w3.org/1999/02/22-rdf-syntax-ns#"
   xmlns:svg="http://www.w3.org/2000/svg"
   xmlns="http://www.w3.org/2000/svg"
   xmlns:sodipodi="http://sodipodi.sourceforge.net/DTD/sodipodi-0.dtd"
   xmlns:inkscape="http://www.inkscape.org/namespaces/inkscape"
   id="svg3897"
   version="1.1"
   inkscape:version="0.48.4 r9939"
   width="223.22835"
   height="311.811">
  <metadata
     id="metadata3903">
    <rdf:RDF>
      <cc:Work
         rdf:about="">
        <dc:format>image/svg+xml</dc:format>
        <dc:type
           rdf:resource="http://purl.org/dc/dcmitype/StillImage" />
      </cc:Work>
    </rdf:RDF>
  </metadata>
  <defs
     id="defs3901" />
  <sodipodi:namedview
     pagecolor="#ffffff"
     bordercolor="#666666"
     borderopacity="1"
     objecttolerance="10"
     gridtolerance="10"
     guidetolerance="10"
     inkscape:pageopacity="0"
     inkscape:pageshadow="2"
     inkscape:window-width="640"
     inkscape:window-height="480"
     id="namedview3899" />
  <inkscape:clipboard
     id="clipboard3905"
     style="color:#000000;fill:#ffffff;fill-opacity:1;fill-rule:nonzero;stroke:#000000;stroke-width:0.99673206;stroke-linecap:butt;stroke-linejoin:miter;stroke-miterlimit:4;stroke-opacity:1;stroke-dasharray:none;stroke-dashoffset:0;marker:none;visibility:visible;display:inline;overflow:visible;enable-background:accumulate"
     min="59.81442,666.95164"
     max="283.04277,978.76264" />
  <rect
     ry="10.629919"
     rx="10.62992"
     style="fill:#ffffff;fill-opacity:1;stroke:#000000;stroke-width:0.99673206;stroke-miterlimit:4;stroke-opacity:1;stroke-dasharray:none;display:inline"
     id="rect6355-6-85-9-3-2"
     width="222.23161"
     height="310.81427"
     x="0.49836603"
     y="0.49836603" />
  <path
     d="m 111.61001,132.39669 c -9.77445,0.21226 -14.15738,11.21729 -6.91836,19.76333 1.04991,1.24653 1.15822,1.96187 -0.76457,0.76452 -4.87384,-3.2592 -14.21922,-1.11662 -14.69777,8.8473 -0.59115,12.27697 16.56281,15.8143 19.78366,2.75967 0.17004,-1.37736 1.2894,-1.34593 1.01951,0.60916 -0.29367,5.30642 -1.95082,10.26608 -4.2286,15.10256 3.83906,0 8.12952,0 11.62015,0 -2.27767,-4.83648 -3.93494,-9.79614 -4.22862,-15.10256 -0.26988,-1.95509 0.84949,-1.98652 1.01953,-0.60916 3.22085,13.05463 20.3748,9.5173 19.78365,-2.75967 -0.47844,-9.96392 -9.82393,-12.1065 -14.69776,-8.8473 -1.92278,1.19735 -1.81447,0.48201 -0.76457,-0.76452 7.23903,-8.54604 2.85609,-19.55106 -6.91827,-19.76333 0,-6e-5 0,5e-5 -0.01,0 z"
     id="path147-0-8-1-6-1-1-0-9-1-8"
     inkscape:connector-curvature="0"
     sodipodi:nodetypes="ccccccccccccccc"
     style="display:inline" />
  <path
     d="m 205.59175,261.49921 c 3.9097,-0.0884 5.663,-4.67387 2.7673,-8.23471 -0.42,-0.51939 -0.4633,-0.81746 0.3059,-0.31856 1.9495,1.358 5.6877,0.46526 5.8791,-3.68638 0.2364,-5.1154 -6.6252,-6.58928 -7.9135,-1.14986 -0.068,0.57391 -0.5158,0.56081 -0.4078,-0.25381 0.1175,-2.21102 0.7803,-4.27754 1.6914,-6.29274 -1.5492,0 -3.0986,0 -4.6478,0 0.9111,2.0152 1.5739,4.08172 1.6914,6.29274 0.108,0.81462 -0.3398,0.82772 -0.4078,0.25381 -1.2883,-5.43942 -8.1499,-3.96554 -7.9135,1.14986 0.1915,4.15164 3.9296,5.04438 5.8792,3.68638 0.7691,-0.4989 0.7258,-0.20083 0.3058,0.31856 -2.8956,3.56084 -1.1424,8.14625 2.7673,8.23471 0.001,2e-5 0,-2e-5 0,0 z"
     id="path147-6-9-8-7-0-5-0-8-3"
     inkscape:connector-curvature="0"
     sodipodi:nodetypes="ccccccccccccccc"
     style="display:inline" />
  <path
     d="m 7.5903409,47.186358 0,-2.8127 2.6802701,0 5.70979,-30.081757 3.24982,0 6.28968,30.081757 2.1644,0 0,2.8127 -7.37511,0 0,-2.8127 1.99037,0 -0.79483,-4.60991 -7.44033,0 -0.57473,4.60991 1.99027,0 0,2.8127 -7.8896001,0 z m 13.2795301,-10.70642 -3.23449,-16.100727 -3.02961,16.100727 6.2641,0 z m 0,0"
     id="path41-6-3-5-1"
     inkscape:connector-curvature="0"
     style="display:inline" />
  <path
     d="m 195.54185,264.62471 0,2.81267 2.6803,0 5.7097,30.08184 3.2499,0 6.2897,-30.08184 2.1644,0 0,-2.81267 -7.3752,0 0,2.81267 1.9904,0 -0.7948,4.6099 -7.4404,0 -0.5747,-4.6099 1.9903,0 0,-2.81267 -7.8896,0 z m 13.2795,10.7064 -3.2345,16.10074 -3.0296,-16.10074 6.2641,0 z m 0,0"
     id="path41-6-4-0-2-8"
     inkscape:connector-curvature="0"
     style="display:inline" />
  <path
     d="m 17.637311,50.311868 c -3.90976,0.088 -5.663,4.67381 -2.76738,8.23471 0.42,0.51941 0.46331,0.81741 -0.30583,0.31851 -1.94956,-1.35801 -5.6876901,-0.46521 -5.8791301,3.6864 -0.23644,5.11541 6.6251701,6.58932 7.9135001,1.1499 0.0677,-0.5739 0.51579,-0.5608 0.40777,0.25381 -0.11747,2.211 -0.7803,4.2775 -1.69142,6.29271 1.54926,0 3.09861,0 4.64786,0 -0.91112,-2.01521 -1.57394,-4.08171 -1.69141,-6.29271 -0.10801,-0.81461 0.33977,-0.82771 0.40776,-0.25381 1.28833,5.43942 8.14995,3.96551 7.91351,-1.1499 -0.19144,-4.15161 -3.92957,-5.04441 -5.87913,-3.6864 -0.76915,0.4989 -0.72584,0.2009 -0.30582,-0.31851 2.89561,-3.5609 1.14238,-8.14631 -2.76729,-8.23471 -0.001,0 0,0 0,0 z"
     id="path147-6-9-8-7-4-5-6-8-9"
     inkscape:connector-curvature="0"
     sodipodi:nodetypes="ccccccccccccccc"
     style="display:inline" />
</svg>
